<?xml version="1.0" encoding="UTF-8"?> <svg xmlns="http://www.w3.org/2000/svg" xmlns:xlink="http://www.w3.org/1999/xlink" width="500" height="500" viewBox="0 0 500 500"><defs><clipPath id="b"><rect width="500" height="500"></rect></clipPath></defs><g id="a" clip-path="url(#b)"><rect width="500" height="500" fill="#fff"></rect><g transform="translate(-665.679 -5023.301)"><path d="M915.677,5163.871a109.427,109.427,0,0,1,0,218.855q-3.039,0-6.036-.169l23.016-64.641h23.929c6.949,0,14.261-5.684,16.249-12.634l20.205-56.75c4.1-11.52-3.572-18.316-12.379-18.341l-39.425-.012-53.072,149.058a109.458,109.458,0,0,1,2.977-212.6L838.534,5314.39h22.66l25.481-71.566h13.019l-25.427,71.416h22.66l23.394-65.707c4.1-11.52-3.572-18.316-12.379-18.341l-16.752-.049,23.592-66.259C915.08,5163.881,915.378,5163.871,915.677,5163.871Z" transform="translate(0 0.001)" fill="#015294" fill-rule="evenodd"></path><path d="M12394.2,12215.238l22.234-62.461h13.021l-22.239,62.461Z" transform="translate(-11457.045 -6909.955)" fill="#015294" fill-rule="evenodd"></path></g></g></svg> 