<?xml version="1.0" encoding="UTF-8"?> <svg xmlns="http://www.w3.org/2000/svg" xmlns:xlink="http://www.w3.org/1999/xlink" width="500" height="500" viewBox="0 0 500 500"><defs><clipPath id="b"><rect width="500" height="500"></rect></clipPath></defs><g id="a" clip-path="url(#b)"><rect width="500" height="500" fill="#fff"></rect><g transform="translate(94.848 135.685)"><path d="M2.834,72.262H39.878l4.061.169,3.89.339,3.722.845,3.553.847,3.213,1.353,3.045,1.353,2.876,1.692,2.706,1.861,2.369,2.03,2.368,2.2,2.03,2.369,1.86,2.537,1.522,2.706,1.522,2.708L79.8,98.145l1.016,2.876,52.6-33.833L152.53,80.043,111.6,106.43l6.6,4.4,41.272-26.217L177.223,96.45,136.46,123.345l6.935,4.229,41.439-26.387V72.262h30.448v57.679h27.064V157H184.834v-27.74l-51.249,32.984L81.318,126.9,80.3,129.941l-1.014,2.876-1.522,2.876-1.522,2.877-1.861,2.537-2.03,2.539-2.2,2.368-2.537,2.029-2.537,2.03-3.045,1.692-3.045,1.522-3.384,1.353-3.553,1.014-3.721.676-3.89.508-4.229.169H2.834ZM31.928,98.818h7.949l3.553.339,2.876,1.014,2.537,1.522,2.2,2.03,1.524,2.368,1.184,2.539.676,2.876.169,2.876-.169,2.876-.676,2.877-1.184,2.537-1.692,2.369-2.03,2.029-2.537,1.524-3.045,1.014-3.384.339H31.928V98.818ZM249.958,72.262h30.617v57.679h26.9V157H249.959V72.262Z" transform="translate(0 0)" fill="#0382c7" fill-rule="evenodd"></path></g></g></svg> 