<?xml version="1.0" encoding="UTF-8"?> <svg xmlns="http://www.w3.org/2000/svg" xmlns:xlink="http://www.w3.org/1999/xlink" width="500" height="500" viewBox="0 0 500 500"><defs><clipPath id="b"><rect width="500" height="500"></rect></clipPath></defs><g id="a" clip-path="url(#b)"><rect width="500" height="500" fill="#fff"></rect><path d="M280.9,7.373a6.026,6.026,0,0,1,5.953-6.063,6.1,6.1,0,0,1,4.206,1.748,6.066,6.066,0,0,1,0,8.52A5.91,5.91,0,0,1,280.9,7.373m-.492,0a6.527,6.527,0,0,0,6.5,6.554,6.147,6.147,0,0,0,4.533-1.912,6.716,6.716,0,0,0,1.912-4.643,6.483,6.483,0,0,0-1.912-4.643A6.327,6.327,0,0,0,286.908.819a6.527,6.527,0,0,0-6.5,6.554m4.042,3.878h.928V8.193h2.075a1.866,1.866,0,0,1,.819.109,1.2,1.2,0,0,1,.492.929l.109,1.2v.546c.055.109.055.164.109.218h1.147v-.164c-.164-.055-.218-.218-.273-.437a1.7,1.7,0,0,1-.055-.6l-.055-.929a1.543,1.543,0,0,0-.219-.874,1.964,1.964,0,0,0-.655-.437,1.66,1.66,0,0,0,.71-.655,1.953,1.953,0,0,0,.219-1.038,1.768,1.768,0,0,0-.929-1.693,2.878,2.878,0,0,0-1.256-.218H284.5Zm.874-3.878V4.916h2.185a1.447,1.447,0,0,1,.765.164,1.08,1.08,0,0,1,.492,1.038c0,.492-.109.819-.382.983a1.622,1.622,0,0,1-.983.273ZM26.544,16.385,0,58.114H18.133L43.694,18.242Zm109.291-.929V0H84.221c-7.046.437-10.1,3.823-12.4,6.226C69.365,8.793,68,14.2,68,14.2V.109H40.527A6.552,6.552,0,0,0,35.01,3.059c-1.529,2.021-7.81,12.4-7.81,12.4Zm140.368,0V0H220.984c-6.991.437-10.1,3.823-12.4,6.226-2.458,2.567-3.823,7.974-3.823,7.974v1.256ZM153.968.055H138.511v15.4h15.457Zm50.631,0H189.2v15.4h15.4Zm0,20.973L189.415,20.1v17.86s-.055,5.134-5.025,5.134h-26a4.9,4.9,0,0,1-4.424-5.079V17.7L138.675,16.6V43.967c2.458,13.108,14.31,14.146,14.31,14.146s1.2.055,1.42.109h35.229s15.075-1.2,15.075-15.73ZM52.269,58.114h72.2a16.943,16.943,0,0,0,13.873-13.982,23.52,23.52,0,0,0,.273-6.172c-.382-2.294-4.752-12.453-14.146-13.327-5.626-.546-55.71-4.533-55.71-4.533a15.684,15.684,0,0,0,4.752,9.012c3.5,3.332,9.012,4.315,9.012,4.315l38.615,3.222c1.2.055,3.441.382,3.386,3.332a3.032,3.032,0,0,1-3.168,2.949H67.344V19.99L52.324,18.9c-.055,0-.055,39.216-.055,39.216Zm152.439.109h55.273c13.873-.819,15.839-13.982,15.839-13.982a25.423,25.423,0,0,0,.109-6.281c-.382-3.113-4.806-12.508-14.255-13.436-5.571-.546-55.983-3.5-55.983-3.5,1.475,5.189,3.5,6.773,5.025,8.193a17.748,17.748,0,0,0,8.684,4.151l39,3.277c1.2.055,3.659.164,3.659,3.113a3.3,3.3,0,0,1-.983,2.294,6.319,6.319,0,0,1-2.567.71H204.872Z" transform="translate(103.323 220.774)" fill="#00539b"></path></g></svg> 