<?xml version="1.0" encoding="UTF-8"?> <svg xmlns="http://www.w3.org/2000/svg" xmlns:xlink="http://www.w3.org/1999/xlink" width="500" height="500" viewBox="0 0 500 500"><defs><clipPath id="b"><rect width="500" height="500"></rect></clipPath></defs><g id="a" clip-path="url(#b)"><rect width="500" height="500" fill="#fff"></rect><g transform="translate(107.615 -89.831)"><path d="M0,292.369H284.769v94.923H0Z" fill="#e22319"></path><path d="M154.033,349.221a14.633,14.633,0,0,0-11.832,5.916v-5.109h-9.949V386.6H142.2V365.624a7.929,7.929,0,0,1,8.336-7.8c4.034,0,8.336,2.958,8.336,7.8V386.33h9.949V363.742c.269-8.336-5.916-14.521-14.79-14.521m86.318.538-9.142,25.008-9.143-25.008H210.772l15.059,36.571h11.025l14.79-36.571ZM121.5,375.036c-4.3,3.227-6.723,3.765-10.488,3.765a10.975,10.975,0,0,1-8.067-2.958l25.546-10.756a20.742,20.742,0,0,0-4.3-10.218c-3.5-4.034-8.336-5.916-14.521-5.916-11.025,0-19.361,8.067-19.361,18.823,0,11.025,8.336,18.824,20.436,18.824,6.722,0,13.714-3.227,16.941-6.992Zm-19.361-14.252c1.614-2.42,4.3-3.765,7.8-3.765a8.615,8.615,0,0,1,7.8,5.109l-17.479,7.261A12.5,12.5,0,0,1,102.135,360.784ZM89.5,377.187H66.639V339H56.421V386.33H89.5Zm180.166,9.68c-11.025,0-19.63-8.067-19.63-18.823,0-10.487,8.6-18.823,19.63-18.823s19.63,8.067,19.63,18.823c.269,10.757-8.336,18.823-19.63,18.823m0-29.041c-5.647,0-9.681,4.3-9.681,10.218a9.938,9.938,0,0,0,9.681,10.219c5.647,0,9.681-4.3,9.681-10.219a9.61,9.61,0,0,0-9.681-10.218m-77.176,29.041c-11.025,0-19.63-8.067-19.63-18.823,0-10.487,8.605-18.823,19.63-18.823s19.63,8.067,19.63,18.823-8.6,18.823-19.63,18.823m0-29.041c-5.647,0-9.681,4.3-9.681,10.218a9.938,9.938,0,0,0,9.681,10.219c5.647,0,9.681-4.3,9.681-10.219a9.609,9.609,0,0,0-9.681-10.218m98.419,24.2h-1.613v-.807h4.3v.807h-1.614v4.3h-1.076Zm3.765-.806h1.076l1.613,2.42,1.614-2.42h1.076V386.6h-1.076v-3.765l-1.614,2.42-1.613-2.42V386.6H294.67Z" transform="translate(-30.069 -24.853)" fill="#fff"></path></g></g></svg> 