<?xml version="1.0" encoding="UTF-8"?> <svg xmlns="http://www.w3.org/2000/svg" xmlns:xlink="http://www.w3.org/1999/xlink" width="500" height="500" viewBox="0 0 500 500"><defs><clipPath id="b"><rect width="500" height="500"></rect></clipPath></defs><g id="a" clip-path="url(#b)"><rect width="500" height="500" fill="#fff"></rect><g transform="translate(90.907 198.703)"><path d="M271.015,98l12.509-34.534c4.17-11.494-11.119-7.324-14.594-4.651-2.673,2.085-7.591,6.789-9.409,11.761L249.578,98h-21.6L240.49,63.468c4.17-11.494-11.119-7.324-14.594-4.651-2.673,2.085-7.591,6.789-9.409,11.761L206.544,98H185l19.887-54.8c6.9,0,10.585,1.6,13.739,4.651a8.665,8.665,0,0,1,2.245,4.116,77.922,77.922,0,0,1,10.05-5.239,46.041,46.041,0,0,1,16.946-3.582c6.9,0,10.585,1.6,13.739,4.651a8.234,8.234,0,0,1,2.245,4.116,77.926,77.926,0,0,1,10.05-5.239A46.041,46.041,0,0,1,290.848,43.1c6.9,0,10.585,1.6,13.739,4.651,3.1,3.047,3.047,8.66,1.924,11.761L292.613,97.9m10.959-9.73a117.975,117.975,0,0,0,20.8,1.871c7.27,0,12.563-1.6,13.151-6.575.267-2.352-1.925-4.063-6.041-6.308-4.651-2.566-8.607-3.849-12.67-6.575s-5.827-7-4.437-11.494c1.6-5.292,5.292-8.34,10.959-11.226,6.629-3.368,11.868-4.651,24.7-4.651A124.892,124.892,0,0,1,373.6,45.452l-2.726,7.591a117.973,117.973,0,0,0-20.8-1.871c-7.27,0-12.563,1.6-13.151,6.575-.267,2.352,1.925,4.063,6.041,6.308,4.651,2.566,8.607,3.849,12.67,6.575s5.827,7,4.437,11.494c-1.6,5.292-5.292,8.34-10.959,11.226C342.49,96.719,337.251,98,324.474,98a123.916,123.916,0,0,1-23.522-2.245ZM381.835,45.4l-2.887,7.965A131.546,131.546,0,0,1,401.4,51.119l2.887-7.965A132.087,132.087,0,0,0,381.835,45.4M384.4,98l15.022-41.377a132.087,132.087,0,0,0-22.453,2.245L362.8,98Z" transform="translate(-86.102 -20.048)" fill="#020203"></path><path d="M85.159,17.546C75.537,10.917,57.949,2.738,43.3.065a2.907,2.907,0,0,0-.962,0C28.119,2.685,10.8,10.7.534,17.546A1.377,1.377,0,0,0,0,18.562C-.054,39.625,3.742,56.2,8.927,68.6c3.368,7.965,8.821,17.16,16.038,23.629a55.365,55.365,0,0,0,17.428,10.906,1.483,1.483,0,0,0,.962,0A54.77,54.77,0,0,0,60.782,92.228C68.053,85.76,73.505,76.137,76.82,68.6c5.88-14.274,9.035-31.006,8.928-50.037a1.283,1.283,0,0,0-.588-1.016" transform="translate(0 0)" fill="#a7a9ab"></path><path d="M76.763,69.659c-2.406,5.56-7.645,15.877-15.4,22.773a52.688,52.688,0,0,1-15.931,10.211.678.678,0,0,1-.321.053.91.91,0,0,1-.374-.053A54.653,54.653,0,0,1,28.81,92.486C22.716,86.98,17.263,78.854,13.36,69.659,7.587,56.027,4.807,40.15,4.7,21.921a.935.935,0,0,1,.374-.748C16.835,13.528,32.712,6.845,44.848,4.6h.321A98.127,98.127,0,0,1,61.741,9.411,122.184,122.184,0,0,1,85.1,21.065a.779.779,0,0,1,.374.695c-.053,18.016-2.94,33.893-8.714,47.9" transform="translate(-2.188 -2.129)" fill="#e52629"></path><g transform="translate(8.834 12.261)"><path d="M65.373,33.438a8.3,8.3,0,0,1,1.123.214c.428.267.428.855.695,1.336-1.657.267-2.192-.909-2.994-1.818a8.36,8.36,0,0,1,1.176.267M32.442,73.532a21.438,21.438,0,0,1-2.406-21.277C36.612,36.218,54.36,40.6,56.071,41.243A3,3,0,0,1,58.584,38.2a3.751,3.751,0,0,1,1.336-.053c.107,0,.214.107.107.107-1.711.428-2.994,1.336-2.94,2.94.053,1.5,1.6,2.566,2.887,2.833a2.544,2.544,0,0,0,1.764-.267h.053a1.807,1.807,0,0,1,.642-.321,2.737,2.737,0,0,1,1.6-.053,2.1,2.1,0,0,0,.695.267c.16,0,.428-.267.641-.267,1.016-.053,3.261.748,3.314,1.283.053.374-.535.8-.855,1.069a3.845,3.845,0,0,1-1.123.641c-.107.053-.053.053,0,.053,1.764-.214,4.972-1.39,4.491.8l-.16.481a.052.052,0,0,0,.053.053c1.764-.588,2.3-2.138,2.031-4.223,0-.053-.053-.053-.053,0a2.279,2.279,0,0,1-.588.642,3.1,3.1,0,0,0-.321-1.871h-.053a1.777,1.777,0,0,1-1.176,1.978A16.933,16.933,0,0,0,68.794,41.3h-.053a3.29,3.29,0,0,1-.107,1.016s-.053.053-.053,0A1.563,1.563,0,0,0,67.244,41.3c-.428-.053-.855.053-1.336,0-.641-.107-1.336-.535-1.39-1.016-.053-.748,1.336-1.123,2.031-1.283a5.688,5.688,0,0,1,.481,1.336.052.052,0,0,0,.053.053,5.067,5.067,0,0,1,2.94-1.283c.321,0,1.016.107,1.123.321.267.535-.374,1.123-.588,1.336-.374.374-.214.321-.16.321a7.355,7.355,0,0,0,2.513-1.657,4.137,4.137,0,0,1,.535,2.513.052.052,0,0,0,.053.053h.053c.855-.962.909-2.406.8-4.063a4.6,4.6,0,0,1,2.138,1.5c.053.053.107.053.053,0a6.156,6.156,0,0,0-1.978-2.085,5.077,5.077,0,0,1-.909-.535c-.214-.214-.481-.909-.748-.962-.374-.053-.8.321-1.23.374-.748.053-1.123-.481-1.283-1.176-1.818.535-2.513-.588-2.887-1.925l-.16-.8c-.16-.321-.855-.642-1.23-.8a3.7,3.7,0,0,0-1.711-.214,15.311,15.311,0,0,1-1.5.374,8.626,8.626,0,0,1-4.17-1.23,30.689,30.689,0,0,1-9.088-7.484c-.107-.107-.107,0-.107.053a19.809,19.809,0,0,0,8.126,9.248,28.55,28.55,0,0,1-10.8-5.4c-.053-.053-.16-.107-.053.053a27.359,27.359,0,0,0,4.972,4.972l.053.053c-2.673,1.069-6.629,1.5-9.836,2.245-.16.053-.16.107-.053.107a38.611,38.611,0,0,1,5.56.748h-.053c-7.27.267-13.579,2.406-17.962,6.469-.053.053,0,.107.053.053a25.862,25.862,0,0,1,3.208-1.176c-1.069,1.016-2.192,2.031-3.154,3.1-1.443,1.6-2.085,1.5-2.78.374-.535-.588-.535-2.459.214-2.833.909.267,1.5-.481,1.39-1.336-.16-1.176-1.5-1.978-2.3-2.513-.107-.053-.16-.053-.107,0,.428.428,1.016.855,1.123,1.5.053.267.053.748-.214.855-.428.107-.642-.321-1.069-.267-.374.053-.535.695-.588,1.123a8.364,8.364,0,0,0-.107,1.657c0,.267.107.695-.107.909-.267-.107-.321-.428-.428-.695a5.361,5.361,0,0,1-.8-3.154c.16-.053.481,0,.642-.107a2.606,2.606,0,0,0-.909-1.818,3.031,3.031,0,0,0-2.726-.748c-.053,0-.053.053,0,.053.695.107,1.978.267,2.031.909,0,.267-.321.642-.428.855a4.153,4.153,0,0,0,.695,3.689c.374.481.855.909.535,1.764a3.564,3.564,0,0,1-1.123-.481,3.564,3.564,0,0,1-1.336-1.016c-.267-.481-.267-1.016-.642-1.39a3.546,3.546,0,0,0-4.009-.909c-.053,0-.053.053,0,.053,1.123-.053,2.138.053,2.566.8a4.124,4.124,0,0,1,.374,1.39c0,.214-.053.481.053.642.16.321.748.267,1.069.428.428.267.695.909,1.176,1.336a2.965,2.965,0,0,0,.428.321c.748.428,2.3.8,2.887,1.39.909.909.428,2.459.107,3.475a10.2,10.2,0,0,0-.695,3.314c0,.053.053.107.053.053a13.3,13.3,0,0,1,2.94-2.513,40.884,40.884,0,0,0-2.619,7c-.588,2.192-1.5,5.827-.107,7.912,0,.053.053.053.053,0,.107-.695.107-1.5.588-1.818a24.752,24.752,0,0,0,6.736,10.05c.267-.053.321-.107.267-.214" transform="translate(-16.525 -22.914)" fill="#fff"></path><path d="M53.728,71.884c10.424,3.047,19.459-3.368,21.33-5.72.321-.374.214-.428-.107-.214A23.717,23.717,0,0,1,69.873,69.1c-7.591,3.742-15.61,1.764-15.824,1.283-.214-.374.535-.321.535-.321,16.251-.535,19.459-7.645,19.406-7.912,0-.267-.267.053-.267.053C69.5,67.714,58.54,68.3,58.54,68.3c-2.887.267-5.239-.214-6.682-1.55A4.148,4.148,0,0,1,51,65.469h-.053a6,6,0,0,1-.855,1.176c-.374.481-.962.695-1.336.428-1.176-.8,1.978-5.292,4.491-7.27.107-.107.481-.428.267-.321A19.079,19.079,0,0,0,42.395,72.365a19.714,19.714,0,0,0-.695,5.292,22.946,22.946,0,0,0,.642,5.4,30.785,30.785,0,0,0,3.1,8.072c.107.16.107.053.16.053a10.393,10.393,0,0,0,.909-2.245,15.748,15.748,0,0,1,.909-2.673c1.016-1.657,6.415-1.23,4.918-2.352a8.055,8.055,0,0,1-1.23-1.123,24.253,24.253,0,0,1-2.085-2.566,12.274,12.274,0,0,1-2.406-6.469c0-.107.053-.107.107,0a13.213,13.213,0,0,0,6.9,7.591,19.592,19.592,0,0,0,5.453,1.443c.16,0,.16-.053,0-.053-4.009-.909-8.019-3.635-9.676-6.9,0,0-.695-1.069-.267-1.283s1.123.695,1.818,1.336a13.24,13.24,0,0,0,5.079,2.833,17.806,17.806,0,0,0,8.714.214c.107,0,.107-.053,0-.053a18.632,18.632,0,0,1-7.484-.695c-4.865-1.871-6.308-4.277-5.934-4.7.481-.535,6.148,4.865,15.4.8a22.6,22.6,0,0,0,5.292-3.314c.107-.107.053-.214,0-.16-3.1,1.657-6.094,3.368-10.638,3.635a14.334,14.334,0,0,1-7.965-1.925c-.374-.267-.535-.428-.374-.588.214-.267.695-.053.695-.053" transform="translate(-28.242 -39.923)" fill="#fff"></path><path d="M91.2,99.624a2.4,2.4,0,0,1-1.6.374,5.151,5.151,0,0,0-1.283,0,.278.278,0,0,0-.214.107c-.748.695-1.176.374-1.123-.107a4.286,4.286,0,0,1,.267-1.123,10.632,10.632,0,0,0,.909-1.925,2.745,2.745,0,0,0-.321-1.711c-.107-.267-.481-1.283.8-1.23a.607.607,0,0,0,.428-.16A3.4,3.4,0,0,0,90.4,90.964c0-.053-.053-.107-.053-.053a2.651,2.651,0,0,1-1.23,1.069,8.047,8.047,0,0,0-1.176.588,1.118,1.118,0,0,0-.214.321c-.374.909-.8.535-.855.428a3.685,3.685,0,0,0-1.176-1.23,8.154,8.154,0,0,0-4.758-.962c-.8.053-1.6.16-2.352.267a8.036,8.036,0,0,1-1.069.107c-1.5.053-.481-1.657.748-1.978a2.748,2.748,0,0,1,2.619.588c.053.053.107.053.107,0-.481-1.176-2.513-5.346-9.676-4.758-.107,0-.107.053-.053.107a15.409,15.409,0,0,1,4.277,1.39c.428.214,1.283.855,1.069,1.764a5.02,5.02,0,0,1-1.818,2.138,2.415,2.415,0,0,1-1.925-.16A4.828,4.828,0,0,1,70.4,86.848s-.053-.107-.053,0a4.361,4.361,0,0,0,3.261,5.239.91.91,0,0,0,.374.053c.695.16.642,1.39.481,1.978-.16.695-1.23.748-2.031.641A4.592,4.592,0,0,1,70.4,93.9,10.41,10.41,0,0,1,68,91.231c-.107-.16-.16-.16-.107,0a8.24,8.24,0,0,0,2.833,3.635,7.939,7.939,0,0,0,5.453,1.6,15.09,15.09,0,0,0,3.742-.8c.107-.053.107-.107,0-.107-1.657,0-3.742,0-4.17-1.123-.16-.374-.267-1.978.588-1.925a16.134,16.134,0,0,0,3.582-.214,10.011,10.011,0,0,1,3.314.535,3.709,3.709,0,0,1,1.925,1.443c.855,1.23.642,3.368.321,5.132a26.068,26.068,0,0,1-1.39,4.384c-1.123,2.833-3.421,7.163-5.239,8.767a20.324,20.324,0,0,1-8.072,3.742,17.858,17.858,0,0,1-4.063.642c-3.261.16-5.88-.321-7.591-1.818a7.717,7.717,0,0,1-1.871-2.833c-.535-2.619.909-3.368,4.437-2.3,1.123.321,1.818-.641,2.673-.695.428,0,.748.267,1.123.16.267-.053.481-.535.695-.855a2.863,2.863,0,0,1,.8-.8c1.016-.588,2.085.107,2.78.535.053.053.107,0,.107-.053a3.716,3.716,0,0,0-4.384-1.123,12.38,12.38,0,0,0-1.016.855,4.251,4.251,0,0,1-2.3.214,1.344,1.344,0,0,1-.8-.107c.214-1.069,1.23-1.069,1.978-1.55a4.013,4.013,0,0,0,2.192-3.154,1.069,1.069,0,0,1,.107-.695c.16-.214.535-.214.909-.16a6.542,6.542,0,0,1,1.443.481c.107.053-.16-.214-.267-.321-1.39-1.123-3.956-.588-4.544.641-.107.214.481.214.535.481s-.374.695-.588.909a7.907,7.907,0,0,1-1.657,1.336c-.321.214-.588.535-.962.535a6.237,6.237,0,0,1,.909-1.657c.214-.428.748-1.55.481-1.978-.214-.267-1.123-.107-1.23-.481-.107-.267.107-.588.267-.748a4,4,0,0,1,1.871-.855c.107,0,.053-.053-.053-.053-1.23.053-3.154.481-3.635,1.39a1.159,1.159,0,0,0,.428,1.6.76.76,0,0,0,.321.107c.267.962-.267,2.619-1.5,2.78-1.657.214-2.887-.909-2.192-3.8,0,0,0-.107-.053-.053l-.16.16c-.107.107-.16.214-.267.267-1.123,1.016-3.582,2.566-5.667,1.55a2.1,2.1,0,0,1-.962-.962c-1.016-2.192,1.283-3.742,2.994-3.421a1.335,1.335,0,0,1,1.283,1.443,1.165,1.165,0,0,1-1.23.855A1.823,1.823,0,0,1,51.1,102.4c-.321-.321-.374-.641-.428-.535-.588,2.566,2.994,2.406,4.223,1.176a3.3,3.3,0,0,0,.642-4.33,3.133,3.133,0,0,0-2.887-1.23,7.853,7.853,0,0,0-3.261.909c-.962.748-1.176,2.192-1.443,3.421a6.623,6.623,0,0,1-1.55,3.261c0,.053,0,.053.053.053a1.862,1.862,0,0,1,1.5.535c.8.748-.588.16-1.5.695H46.4a6.758,6.758,0,0,0-3.1,5.292c0,.107.053.214.107.107a5.275,5.275,0,0,1,2.566-1.871,12.584,12.584,0,0,0,2.352-.909,1.154,1.154,0,0,0,.481-.748c.16-.695.855-.8.8-.16-.053.962-.748,1.711-.321,2.833.428,1.176,1.657,1.711,2.726,2.406.214.16.8.642-.855,1.176h-.107c-.053,0-.053.053-.107.053s-.053,0-.107.053a5.767,5.767,0,0,0-2.619,4.491c0,.107.053.16.053.107a4.448,4.448,0,0,1,2.192-1.6,12.763,12.763,0,0,0,1.978-.8.876.876,0,0,0,.374-.588c.481-1.336.909-.748.962-.321a3.374,3.374,0,0,0,.428,1.23c.535.855,1.818.748,3.047.962.428.053.909.428-.107.962a.534.534,0,0,0-.267.214,5.518,5.518,0,0,0-1.5,4.811c0,.107.053.16.107.053A4.718,4.718,0,0,1,57.2,122.13a7.181,7.181,0,0,0,1.657-1.176.842.842,0,0,0,.214-.695c-.053-1.283.641-1.069.855-.748.374.588.642,1.23,1.39,1.5a3.4,3.4,0,0,0,1.925-.267,12.728,12.728,0,0,1,1.39-.267c.8-.107.535.642.107,1.176l-.053.053v.053c-.053.053-.053.107-.107.16a4.659,4.659,0,0,0,.321,4.277c.053.107.107.107.107,0a3.321,3.321,0,0,1,.748-2.085,6.792,6.792,0,0,0,.962-1.443.586.586,0,0,0,0-.428c-.053-.107,0,0,0-.053v-.053c-.428-1.23.214-1.39.748-1.23a4.136,4.136,0,0,0,2.78,0,7.165,7.165,0,0,0,1.978-1.336,7.8,7.8,0,0,1,1.818-1.39c.481-.16.748.107.642.962a.879.879,0,0,0,.053.535,4.37,4.37,0,0,0,3.1,2.352c.107,0,.107,0,.053-.053a3.2,3.2,0,0,1-.962-1.764,6.9,6.9,0,0,0-.428-1.5c-.053-.053-.107-.16-.16-.214l-.053-.053c-.053-.053-.107-.053-.16-.107-.855-.481-.535-1.123.321-1.336,1.764-.374,3.742-.8,4.651-1.978A6.432,6.432,0,0,0,82,112.454a16.924,16.924,0,0,1,.642-2.352c.107-.321.214-1.23,1.6-.107a1.019,1.019,0,0,0,.535.267,4.328,4.328,0,0,0,3.635-1.39c.053-.053.053-.107,0-.107a3.142,3.142,0,0,1-1.978-.107,8.111,8.111,0,0,0-1.5-.481h-.214c-1.711.321-.855-.695-.695-.909.481-.695,1.123-1.23,1.6-1.925a9.032,9.032,0,0,0,1.069-3.528c.053-.267.214-.962,1.6-.535.053.053.107.053.214.053h.321a3.444,3.444,0,0,0,2.513-1.925c-.107.214-.107.214-.16.214" transform="translate(-28.986 -51.947)" fill="#fff"></path></g></g></g></svg> 